<?xml version="1.0" standalone="no"?>
<!DOCTYPE svg PUBLIC "-//W3C//DTD SVG 20010904//EN"
 "http://www.w3.org/TR/2001/REC-SVG-20010904/DTD/svg10.dtd">
<svg version="1.0" xmlns="http://www.w3.org/2000/svg"
 width="414.000000pt" height="414.000000pt" viewBox="0 0 414.000000 414.000000"
 preserveAspectRatio="xMidYMid meet">

<g transform="translate(0.000000,414.000000) scale(0.100000,-0.100000)"
fill="#000000" stroke="none">
<path d="M397 3433 c-158 -273 -286 -498 -284 -500 2 -2 886 -2 1965 -1 l1962
3 -287 498 -287 497 -1392 0 -1391 0 -286 -497z"/>
<path d="M1133 2564 c-107 -39 -190 -162 -200 -296 -6 -85 5 -118 41 -118 29
0 39 13 55 70 18 63 57 117 108 147 37 22 53 25 107 21 99 -6 149 -51 191
-171 22 -66 48 -83 82 -56 23 20 14 168 -14 231 -27 59 -95 134 -148 160 -53
28 -164 34 -222 12z"/>
<path d="M2754 2556 c-112 -52 -186 -171 -188 -302 -1 -84 14 -111 56 -101 20
5 28 18 41 67 19 68 72 135 124 157 42 17 127 17 162 -1 45 -24 97 -90 116
-147 21 -64 31 -79 56 -79 35 0 52 44 46 113 -8 84 -30 142 -75 202 -80 106
-223 144 -338 91z"/>
<path d="M1469 1616 c-27 -58 126 -206 279 -270 97 -41 177 -56 300 -56 201 0
375 64 498 185 74 73 99 116 84 145 -15 29 -51 25 -96 -11 -243 -194 -703
-196 -964 -4 -56 41 -86 45 -101 11z"/>
<path d="M580 700 l0 -490 1470 0 1470 0 0 490 c0 303 -4 490 -10 490 -41 0
-130 -30 -208 -71 -132 -70 -168 -69 -319 8 -108 54 -116 57 -190 57 -92 0
-134 -12 -227 -68 -59 -34 -80 -41 -136 -44 -62 -4 -70 -2 -160 46 -174 91
-266 91 -440 0 -90 -48 -98 -50 -161 -46 -53 3 -76 10 -125 39 -93 56 -149 73
-229 73 -84 0 -128 -14 -219 -68 -59 -34 -80 -41 -136 -44 -62 -4 -70 -2 -160
46 -79 41 -169 72 -210 72 -6 0 -10 -187 -10 -490z"/>
</g>
</svg>
